<?xml version="1.0" encoding="UTF-8" standalone="no"?>
<!-- Created with Inkscape (http://www.inkscape.org/) -->

<svg
   width="8.8199711mm"
   height="14.316354mm"
   viewBox="0 0 8.8199711 14.316354"
   version="1.1"
   id="svg1"
   inkscape:version="1.3.2 (091e20e, 2023-11-25)"
   sodipodi:docname="compass.svg"
   xmlns:inkscape="http://www.inkscape.org/namespaces/inkscape"
   xmlns:sodipodi="http://sodipodi.sourceforge.net/DTD/sodipodi-0.dtd"
   xmlns="http://www.w3.org/2000/svg"
   xmlns:svg="http://www.w3.org/2000/svg">
  <sodipodi:namedview
     id="namedview1"
     pagecolor="#ffffff"
     bordercolor="#000000"
     borderopacity="0.25"
     inkscape:showpageshadow="2"
     inkscape:pageopacity="0.0"
     inkscape:pagecheckerboard="0"
     inkscape:deskcolor="#d1d1d1"
     inkscape:document-units="mm"
     inkscape:zoom="19.238925"
     inkscape:cx="16.658935"
     inkscape:cy="27.054526"
     inkscape:window-width="1536"
     inkscape:window-height="1212"
     inkscape:window-x="0"
     inkscape:window-y="25"
     inkscape:window-maximized="0"
     inkscape:current-layer="layer1" />
  <defs
     id="defs1" />
  <g
     inkscape:label="Слой 1"
     inkscape:groupmode="layer"
     id="layer1"
     transform="translate(-139.7,-120.91458)">
    <g
       id="g6"
       inkscape:transform-center-y="-0.52520158"
       transform="rotate(31.636254,140.53517,278.07352)"
       inkscape:transform-center-x="-0.32356279"
       inkscape:label="compass">
      <path
         style="fill:none;stroke:#000000;stroke-width:0.298503;stroke-dasharray:none"
         d="m 62.637455,149.10328 h 4.524372"
         id="path3" />
      <path
         style="fill:none;stroke:#000000;stroke-width:0.298503;stroke-dasharray:none"
         d="m 64.89964,140.65778 -2.262185,8.4455 2.262185,7.28927 2.262187,-7.28927 z"
         id="path4" />
      <text
         xml:space="preserve"
         style="font-style:italic;font-size:2.82223px;font-family:'Times New Roman';-inkscape-font-specification:'Times New Roman,  Italic';fill:#000000;fill-opacity:1;stroke:#000000;stroke-width:0.1;stroke-dasharray:none"
         x="63.864044"
         y="148.04759"
         id="text4"><tspan
           sodipodi:role="line"
           id="tspan4"
           style="fill:#000000;fill-opacity:1;stroke-width:0.1"
           x="63.864044"
           y="148.04759">N</tspan></text>
      <path
         style="fill:#fffdfd;fill-opacity:1;stroke:none;stroke-width:0.377954;stroke-dasharray:none"
         d="m 241.46743,576.51516 -3.81742,-12.31019 3.75976,-0.0514 c 2.06787,-0.0283 5.50617,-0.0283 7.64065,0 l 3.88089,0.0514 -3.76885,12.14706 c -2.07287,6.68089 -3.79332,12.22047 -3.82323,12.3102 -0.0299,0.0897 -1.77222,-5.37646 -3.8718,-12.14707 z"
         id="path5"
         transform="scale(0.26458333)" />
      <path
         style="fill:#fffdfd;fill-opacity:1;stroke:none;stroke-width:0.377954;stroke-dasharray:none"
         d="m 237.64065,562.73247 c 0.0475,-0.13063 1.78549,-6.5934 3.86225,-14.36173 2.71791,-10.16658 3.81472,-13.99975 3.91435,-13.68 0.0761,0.24433 1.77058,6.55748 3.76544,14.02923 1.99486,7.47175 3.67222,13.73462 3.72746,13.9175 0.0945,0.31286 -0.35597,0.3325 -7.62769,0.3325 -6.10187,0 -7.70997,-0.05 -7.64181,-0.2375 z m 10.00891,-5.7953 c 1.01594,-3.62075 1.10223,-3.82661 1.663,-3.96736 0.26817,-0.0673 0.44243,-0.25259 0.44243,-0.47044 0,-0.32059 -0.15389,-0.3594 -1.425,-0.3594 -1.29834,0 -1.425,0.0338 -1.425,0.38 0,0.209 0.1232,0.38 0.27378,0.38 0.15058,0 0.32328,0.0801 0.38377,0.17796 0.15381,0.24886 -0.88586,3.85047 -1.06007,3.67228 -0.0781,-0.0799 -0.52019,-1.12849 -0.98243,-2.33024 l -0.84043,-2.185 -1.16731,-0.0566 c -1.02477,-0.0497 -1.16731,-0.0141 -1.16731,0.29085 0,0.21157 0.22298,0.43158 0.57032,0.56268 0.33901,0.12796 0.53529,0.31824 0.48396,0.46916 -0.0475,0.13963 -0.35071,1.19438 -0.67378,2.34388 -0.78612,2.79695 -0.93135,3.135 -1.34687,3.135 -0.19265,0 -0.44375,0.17468 -0.55802,0.38819 -0.20193,0.37731 -0.16661,0.38663 1.26057,0.3325 1.00521,-0.0381 1.49442,-0.13456 1.55108,-0.30575 0.0455,-0.13759 -0.0971,-0.2971 -0.31725,-0.35466 -0.22001,-0.0575 -0.40001,-0.14951 -0.40001,-0.20439 0,-0.31374 1.05871,-3.84589 1.15275,-3.84589 0.0622,0 0.44158,0.83362 0.84304,1.8525 1.19872,3.04224 1.22174,3.08751 1.56926,3.0872 0.2637,-1.9e-4 0.49852,-0.60107 1.16952,-2.9925 z"
         id="path6"
         transform="scale(0.26458333)" />
    </g>
  </g>
</svg>
