<?xml version="1.0" encoding="UTF-8" standalone="no"?>
<!-- Created with Inkscape (http://www.inkscape.org/) -->

<svg
   width="13.374212mm"
   height="4.4899569mm"
   viewBox="0 0 13.374213 4.4899568"
   version="1.1"
   id="svg1"
   inkscape:version="1.3.2 (091e20e, 2023-11-25)"
   sodipodi:docname="ship.svg"
   xmlns:inkscape="http://www.inkscape.org/namespaces/inkscape"
   xmlns:sodipodi="http://sodipodi.sourceforge.net/DTD/sodipodi-0.dtd"
   xmlns="http://www.w3.org/2000/svg"
   xmlns:svg="http://www.w3.org/2000/svg">
  <sodipodi:namedview
     id="namedview1"
     pagecolor="#ffffff"
     bordercolor="#000000"
     borderopacity="0.25"
     inkscape:showpageshadow="2"
     inkscape:pageopacity="0.0"
     inkscape:pagecheckerboard="0"
     inkscape:deskcolor="#d1d1d1"
     inkscape:document-units="mm"
     inkscape:zoom="37.864848"
     inkscape:cx="25.274101"
     inkscape:cy="8.4775198"
     inkscape:window-width="2560"
     inkscape:window-height="1387"
     inkscape:window-x="0"
     inkscape:window-y="25"
     inkscape:window-maximized="1"
     inkscape:current-layer="g2"
     showguides="true">
    <sodipodi:guide
       position="5.2329296,2.2177934"
       orientation="0,-1"
       id="guide1"
       inkscape:locked="false" />
    <sodipodi:guide
       position="6.6867606,3.6017724"
       orientation="1,0"
       id="guide2"
       inkscape:locked="false" />
  </sodipodi:namedview>
  <defs
     id="defs1" />
  <g
     inkscape:label="ship"
     inkscape:groupmode="layer"
     id="layer1"
     transform="translate(-58.793858,-119.37805)">
    <g
       id="g2"
       inkscape:label="ship">
      <path
         style="fill:#ffffff;fill-opacity:1;stroke:#000000;stroke-width:0.3;stroke-opacity:1"
         d="m 58.962947,121.65434 c -0.02617,-1.36324 -0.02602,-1.41306 0.0041,-1.42104 0.141516,-0.0376 1.923712,-0.27732 2.792506,-0.37571 3.622602,-0.41024 6.256571,-0.43538 7.619247,-0.0727 0.294286,0.0783 0.444496,0.1375 0.63572,0.25047 0.153771,0.0909 0.175286,0.10817 0.621671,0.50103 0.485125,0.42694 0.985574,0.8579 1.182468,1.01827 l 0.116512,0.0948 -0.08316,0.0724 c -0.199628,0.17389 -0.569805,0.50758 -1.022542,0.92175 -0.268035,0.2452 -0.526737,0.47309 -0.574892,0.50645 -0.265241,0.18365 -0.79028,0.34462 -1.42629,0.43724 -1.337373,0.19478 -3.386042,0.17102 -6.04868,-0.0702 -1.040975,-0.0944 -2.481419,-0.26225 -3.467197,-0.40426 -0.154855,-0.0224 -0.290716,-0.0418 -0.301915,-0.0432 -0.01549,-0.002 -0.02683,-0.33976 -0.04748,-1.41542 z"
         id="path1" />
      <circle
         style="fill:#ffffff;stroke:#000000;stroke-width:0.3;stroke-opacity:1;fill-opacity:1"
         id="path2"
         cx="65.480621"
         cy="121.64947"
         r="1" />
      <path
         style="fill:#ffffff;stroke:#000000;stroke-width:0.01;stroke-opacity:1"
         d="m 65.480621,121.75563 -3e-6,-0.10542 3.46e-4,-0.10093"
         id="path3" />
      <path
         style="fill:#ffffff;stroke:#000000;stroke-width:0.01;stroke-opacity:1"
         d="m 65.578948,121.64947 -0.09833,7.4e-4 -0.09906,-7.4e-4"
         id="path4" />
    </g>
  </g>
</svg>
