<?xml version="1.0" encoding="UTF-8" standalone="no"?>
<!-- Created with Inkscape (http://www.inkscape.org/) -->

<svg
   width="12.802545mm"
   height="8.5556669mm"
   viewBox="0 0 12.802545 8.5556669"
   version="1.1"
   id="svg1"
   inkscape:version="1.3.2 (091e20e, 2023-11-25)"
   sodipodi:docname="ship.svg"
   xmlns:inkscape="http://www.inkscape.org/namespaces/inkscape"
   xmlns:sodipodi="http://sodipodi.sourceforge.net/DTD/sodipodi-0.dtd"
   xmlns="http://www.w3.org/2000/svg"
   xmlns:svg="http://www.w3.org/2000/svg">
  <sodipodi:namedview
     id="namedview1"
     pagecolor="#ffffff"
     bordercolor="#000000"
     borderopacity="0.25"
     inkscape:showpageshadow="2"
     inkscape:pageopacity="0.0"
     inkscape:pagecheckerboard="0"
     inkscape:deskcolor="#d1d1d1"
     inkscape:document-units="mm"
     inkscape:zoom="20.852463"
     inkscape:cx="24.217763"
     inkscape:cy="16.185138"
     inkscape:window-width="1536"
     inkscape:window-height="1212"
     inkscape:window-x="0"
     inkscape:window-y="25"
     inkscape:window-maximized="0"
     inkscape:current-layer="layer1" />
  <defs
     id="defs1" />
  <g
     inkscape:label="Слой 1"
     inkscape:groupmode="layer"
     id="layer1"
     transform="translate(-58.737498,-117.475)">
    <g
       id="g1">
      <g
         id="g15"
         transform="matrix(1.1288582,-0.62488075,0.63560849,1.1098055,-95.560992,25.892925)"
         style="display:inline;fill:none;fill-opacity:1;stroke-width:0.778501"
         inkscape:label="ship">
        <path
           style="fill:none;fill-opacity:1;stroke:#000000;stroke-width:0.23355"
           d="m 66.37008,125.08943 v 2.43867"
           id="path14" />
        <path
           style="fill:none;fill-opacity:1;stroke:#000000;stroke-width:0.23355"
           d="m 66.37008,125.08943 c 0,0 7.602913,-1.21934 8.941792,0 1.338876,1.21933 1.386695,1.21933 1.386695,1.21933 v 0 h -0.09564"
           id="path15" />
        <path
           style="fill:none;fill-opacity:1;stroke:#000000;stroke-width:0.23355"
           d="m 66.46572,127.52809 c 0,0 7.602913,1.21934 8.941792,0 1.338876,-1.21933 1.386695,-1.21933 1.386695,-1.21933 v 0 h -0.09564"
           id="path15-4" />
      </g>
      <path
         style="fill:#ffffff;stroke:none;stroke-width:1.13386;fill-opacity:1"
         d="M 3.9396083,26.609972 C 1.3790727,22.1378 1.2891209,21.972339 1.3743405,21.891322 1.7753911,21.510047 7.2489879,17.48104 9.950863,15.578312 21.216845,7.6445277 29.903901,2.7814747 35.079789,1.5110256 c 1.117798,-0.2743693 1.723195,-0.3507401 2.562169,-0.3232172 0.67465,0.022132 0.777452,0.04058 2.970292,0.5330285 2.383141,0.5351839 4.824363,1.0558511 5.768154,1.2302393 L 46.938883,3.0542687 46.79462,3.445373 c -0.346283,0.938795 -0.968045,2.7168502 -1.717494,4.9115329 -0.443698,1.2993257 -0.887845,2.5243541 -0.986992,2.7222851 -0.54611,1.090222 -1.994746,2.576613 -3.935287,4.037851 -4.080481,3.072624 -10.915784,6.711404 -20.181187,10.743475 -3.622377,1.576367 -8.702801,3.633412 -12.2287715,4.951384 -0.5538914,0.207039 -1.0396148,0.389108 -1.0793857,0.404597 -0.055056,0.02144 -0.7054845,-1.077724 -2.7258945,-4.606526 z"
         id="path1"
         transform="matrix(0.26458333,0,0,0.26458333,58.737498,117.475)" />
    </g>
  </g>
</svg>
